<?xml version="1.0" encoding="UTF-8"?>
<svg id="Vrstva_2" data-name="Vrstva 2" xmlns="http://www.w3.org/2000/svg" viewBox="0 0 155.8 109.2">
  <defs>
    <style>
      .cls-1 {
        fill: #281b4b;
        stroke-width: 0px;
      }
    </style>
  </defs>
  <g id="Layer_1" data-name="Layer 1">
    <path class="cls-1" d="M152.4,17.1c-1.8-6.7-7.1-12-13.8-13.8C126.5,0,77.8,0,77.8,0c0,0-48.7.1-60.8,3.4-6.7,1.8-12,7.1-13.8,13.8C0,29.3,0,54.6,0,54.6c0,0,0,25.3,3.3,37.5,1.8,6.7,7.1,12,13.8,13.8,12.1,3.3,60.8,3.3,60.8,3.3,0,0,48.7,0,60.8-3.3,6.7-1.8,12-7.1,13.8-13.8,3.3-12.1,3.3-37.5,3.3-37.5,0,0-.1-25.3-3.4-37.5ZM62.3,78V31.2l40.4,23.4-40.4,23.4Z"/>
  </g>
</svg>