<?xml version="1.0" encoding="UTF-8"?>
<svg id="Vrstva_2" data-name="Vrstva 2" xmlns="http://www.w3.org/2000/svg" viewBox="0 0 129.5 129.5">
  <defs>
    <style>
      .cls-1 {
        fill: none;
      }

      .cls-1, .cls-2 {
        stroke-width: 0px;
      }

      .cls-2 {
        fill: #281b4b;
      }
    </style>
  </defs>
  <g id="Logo">
    <g id="Logo-2" data-name="Logo">
      <path id="Initiator" class="cls-2" d="M129.5,64.75C129.5,28.99,100.51,0,64.75,0S0,28.99,0,64.75c0,30.37,20.91,55.85,49.11,62.84v-43.06h-13.35v-19.79h13.35v-8.53c0-22.04,9.97-32.25,31.61-32.25,4.1,0,11.18.8,14.08,1.61v17.94c-1.53-.16-4.18-.24-7.48-.24-10.62,0-14.72,4.02-14.72,14.48v7h21.15l-3.63,19.79h-17.52v44.49c32.06-3.87,56.91-31.17,56.91-64.28Z"/>
      <path id="F" class="cls-1" d="M90.11,84.54l3.63-19.79h-21.15v-7c0-10.46,4.1-14.48,14.72-14.48,3.3,0,5.95.08,7.48.24v-17.94c-2.9-.8-9.97-1.61-14.08-1.61-21.64,0-31.61,10.22-31.61,32.25v8.53h-13.35v19.79h13.35v43.06c5.01,1.24,10.25,1.91,15.64,1.91,2.66,0,5.27-.16,7.84-.47v-44.49h17.52Z"/>
    </g>
  </g>
</svg>
