<?xml version="1.0" encoding="UTF-8"?>
<svg id="Vrstva_2" data-name="Vrstva 2" xmlns="http://www.w3.org/2000/svg" viewBox="0 0 362.54 102.05">
  <defs>
    <style>
      .cls-1 {
        fill: #e9c2b8;
        stroke-width: 0px;
      }
    </style>
  </defs>
  <g id="Logo">
    <g>
      <path class="cls-1" d="M68.3,98.64h-2.56c-2.18,0-3.55-.28-4.12-.85-.28-.28-.43-1.94-.43-4.98v-32.4c0-7.96-.85-13.36-2.56-16.2-3.03-5.02-7.96-7.53-14.78-7.53-7.59,0-13.8,3.05-18.68,9.09v-8.42c0-.95-.32-1.42-.97-1.42-.32,0-.93.43-1.82,1.28-2.35,3.03-5.47,5.66-9.36,7.89-3.89,2.23-7.74,3.58-11.56,4.05-.97.1-1.46.52-1.46,1.28,0,.66.49.99,1.48.99.33,0,.99-.05,1.97-.14,4.94-.47,7.61-.71,8.02-.71.99,0,1.56.28,1.73.85.16.57.25,2.37.25,5.39v7.8h0v30.91l-.43,2.12c-.28.66-1.14.99-2.56.99h-3.55c-1.71.17-2.56.54-2.56,1.12s.71.87,2.13.87h25.87c1.14,0,1.71-.33,1.71-.99s-.48-.99-1.44-.99l-4.33-.14c-2.03-.09-3.03-.71-3.03-1.84v-44.24c0-2.17.47-3.88,1.42-5.1,3.22-4.16,7.2-6.24,11.94-6.24s8.05,2.13,9.67,6.38c.76,1.98,1.14,8.13,1.14,18.43v27.22c0,2.65-.14,4.18-.43,4.61-.28.43-1.33.69-3.13.78-3.13.1-4.95.19-5.47.29-.52.09-.78.38-.78.85,0,.66.62.99,1.85.99h26.15c1.42,0,2.13-.35,2.13-1.06,0-.62-.48-.93-1.42-.93Z"/>
      <path class="cls-1" d="M130.78,93.09c-.48,0-1.19.52-2.13,1.56-1.71,1.9-3.89,2.84-6.54,2.84-2.27,0-3.65-1.71-4.12-5.12-.1-.76-.14-3.31-.14-7.67v-26.58c0-6.44-.43-10.75-1.28-12.93-2.37-5.69-8.77-8.53-19.19-8.53-6.92,0-12.32,1.76-16.2,5.26-3.51,3.22-5.26,7.06-5.26,11.51,0,2.27.7,4.15,2.11,5.61,1.4,1.47,3.19,2.2,5.34,2.2,4.13,0,6.19-2.08,6.19-6.25,0-1.42-.46-2.7-1.39-3.84-.93-1.14-1.97-1.7-3.13-1.7s-1.73-.38-1.73-1.14c0-2.75,1.11-5.02,3.34-6.82,2.22-1.8,5-2.7,8.31-2.7,5.3,0,8.72,2.41,10.23,7.25.85,2.65,1.28,8.15,1.28,16.49v3.55c-7.88,1.52-13.42,3.03-16.62,4.55-9.3,4.55-13.94,10.71-13.94,18.48,0,3.79,1.32,6.89,3.96,9.31,2.64,2.42,5.98,3.62,10.04,3.62,7.54,0,13.1-3.5,16.69-10.52.28,6.73,3.67,10.09,10.18,10.09,3.11,0,6.34-.88,9.68-2.63,3.35-1.75,5.02-3.43,5.02-5.05,0-.57-.24-.85-.71-.85ZM106.48,78.88c0,5.59-.28,8.91-.84,9.95-2.43,4.55-5.65,6.82-9.67,6.82-2.62,0-4.79-.97-6.52-2.91-1.72-1.94-2.59-4.43-2.59-7.46,0-4.36,1.52-7.84,4.55-10.45,3.03-2.6,8.06-4.71,15.06-6.33v10.38Z"/>
      <path class="cls-1" d="M213.39,98.5c-4.83,0-7.3-.47-7.39-1.42v-35.82c0-5.02-.1-8.2-.28-9.52-.38-3.79-1.38-6.73-2.98-8.81-3.22-4.17-8.62-6.25-16.2-6.25s-12.89,3.03-17.06,9.1V1.42c0-.95-.31-1.42-.94-1.42-.31,0-.9.43-1.77,1.28-2.28,3.03-5.31,5.66-9.08,7.89-3.77,2.23-7.51,3.58-11.2,4.05-.94.1-1.42.52-1.42,1.28,0,.66.48.99,1.43.99.32,0,.96-.05,1.91-.14,4.78-.47,7.38-.71,7.77-.71.96,0,1.52.28,1.67.85.16.57.24,2.37.24,5.39v19.19h0v56.57c-.1,1.43-1.23,2.09-3.41,1.99l-2.13.14h-2.13c-1.04,0-1.56.33-1.56.99,0,.57.52.86,1.56.86h1.42c.85-.09,5.21-.09,13.08,0h12.65c.95,0,1.42-.33,1.42-.99,0-.75-.57-1.13-1.71-1.13-3.41-.09-5.45-.21-6.11-.35-.66-.14-1.04-.69-1.14-1.63-.1-.38-.14-1.84-.14-4.4v-36.16c0-4.54.47-7.47,1.42-8.79,2.84-4.06,6.54-6.1,11.09-6.1,5.49,0,9.05,2.17,10.66,6.52.76,2.08,1.14,7.42,1.14,16.02v28.78c0,3.02-.16,4.8-.5,5.32-.33.52-1.59.78-3.77.78-3.6,0-5.4.33-5.4.99,0,.76.61,1.14,1.85,1.14h25.87c1.61,0,2.42-.38,2.42-1.14,0-.47-.43-.8-1.28-.99Z"/>
      <path class="cls-1" d="M253.63,98.13h-6.77c-1.72-.09-2.72-.43-3.01-.99-.29-.57-.43-2.56-.43-5.97v-36.86c0-.95-.33-1.42-.98-1.42-.33,0-.94.43-1.84,1.28-2.37,3.03-5.51,5.66-9.42,7.89-3.92,2.23-7.79,3.58-11.62,4.05-.98.1-1.47.52-1.47,1.28,0,.66.5.99,1.49.99.33,0,.99-.05,1.98-.14,4.97-.47,7.65-.71,8.07-.71.99,0,1.57.28,1.73.85.17.57.25,2.37.25,5.39v13.3c0,4.54-.1,7.5-.31,8.87-.21,1.37-1.58,2.1-4.12,2.2-2.05.1-3.98.14-5.78.14-1.15,0-1.72.43-1.72,1.28s.98,1.28,2.94,1.28h30.02c1.8,0,2.7-.42,2.7-1.27,0-.95-.57-1.43-1.72-1.43Z"/>
      <path class="cls-1" d="M255.47,34.92c-.33,0-.99.05-1.98.14-4.97.47-7.65.71-8.07.71-.99,0-1.57-.28-1.73-.85-.17-.57-.25-2.37-.25-5.39v-7.41h0V1.62c0-.95-.33-1.42-.98-1.42-.33,0-.94.43-1.84,1.28-2.37,3.03-5.51,5.66-9.42,7.89-3.92,2.23-7.79,3.58-11.62,4.05-.98.1-1.47.52-1.47,1.28,0,.67.5,1,1.49,1,.33,0,.99-.05,1.98-.14,4.97-.47,7.65-.71,8.07-.71.99,0,1.57.28,1.73.85.17.57.25,2.37.25,5.39v7.41h0v20.5c0,.95.33,1.42.98,1.42.33,0,.94-.43,1.84-1.28,2.37-3.03,5.51-5.66,9.42-7.89,3.92-2.23,7.79-3.58,11.62-4.05.98-.1,1.47-.52,1.47-1.28,0-.66-.5-1-1.49-1Z"/>
      <path class="cls-1" d="M317.01,93.09c-.48,0-1.19.52-2.13,1.56-1.7,1.9-3.89,2.84-6.54,2.84-2.27,0-3.65-1.71-4.12-5.12-.09-.76-.14-3.31-.14-7.67v-26.58c0-6.44-.43-10.75-1.28-12.93-2.37-5.69-8.76-8.53-19.19-8.53-6.92,0-12.32,1.76-16.2,5.26-3.51,3.22-5.26,7.06-5.26,11.51,0,2.27.7,4.15,2.11,5.61,1.41,1.47,3.19,2.2,5.35,2.2,4.13,0,6.19-2.08,6.19-6.25,0-1.42-.47-2.7-1.39-3.84-.93-1.14-1.97-1.7-3.13-1.7s-1.74-.38-1.74-1.14c0-2.75,1.11-5.02,3.34-6.82,2.23-1.8,5-2.7,8.32-2.7,5.31,0,8.72,2.41,10.23,7.25.85,2.65,1.28,8.15,1.28,16.49v3.55c-7.88,1.52-13.42,3.03-16.62,4.55-9.3,4.55-13.94,10.71-13.94,18.48,0,3.79,1.32,6.89,3.96,9.31,2.64,2.42,5.98,3.62,10.04,3.62,7.54,0,13.1-3.5,16.68-10.52.28,6.73,3.68,10.09,10.18,10.09,3.11,0,6.34-.88,9.69-2.63,3.34-1.75,5.02-3.43,5.02-5.05,0-.57-.24-.85-.71-.85ZM292.71,78.88c0,5.59-.28,8.91-.84,9.95-2.43,4.55-5.65,6.82-9.66,6.82-2.62,0-4.79-.97-6.52-2.91-1.73-1.94-2.59-4.43-2.59-7.46,0-4.36,1.52-7.84,4.55-10.45,3.04-2.6,8.06-4.71,15.06-6.33v10.38Z"/>
      <path class="cls-1" d="M357.43,70.14c-2.65-2.56-8.91-5.79-18.76-9.69-6.35-2.47-9.52-6.08-9.52-10.83,0-3.04,1.04-5.56,3.13-7.55,2.08-1.99,4.74-2.99,7.96-2.99,3.41,0,6.42,1.05,9.02,3.16,2.6,2.11,4.43,4.88,5.47,8.32.85,2.87,1.56,4.3,2.13,4.3.76,0,1.14-.38,1.14-1.14v-.28c-.57-5.02-.81-8.67-.71-10.94v-6.82c0-.76-.33-1.14-.98-1.14-.57,0-.99.47-1.27,1.42-.47,1.9-1.69,2.84-3.66,2.84-.75,0-1.6-.14-2.54-.43-3.76-1.14-6.58-1.7-8.46-1.7-5.26,0-9.68,1.81-13.25,5.42-3.57,3.61-5.36,8.07-5.36,13.39,0,7.98,5.26,13.96,15.78,17.95,5.3,1.99,8.5,3.25,9.59,3.77,1.09.52,2.3,1.4,3.63,2.64,2.37,2.18,3.55,5.13,3.55,8.83,0,3.32-1.04,5.98-3.13,7.98-2.09,1.99-4.83,2.99-8.24,2.99-6.35,0-11.42-2.48-15.21-7.45-1.89-2.48-3.13-5.92-3.69-10.31-.1-1.05-.52-1.57-1.28-1.57-.66,0-.99.52-.99,1.56v19.05c0,.76.33,1.14.99,1.14s1.18-.57,1.55-1.71c.66-1.8,1.65-2.7,2.96-2.7.94,0,2.02.33,3.24,1,4.61,2.27,8.52,3.41,11.72,3.41,5.55,0,10.33-1.92,14.33-5.77,4-3.84,6-8.52,6-14.03,0-4.75-1.71-8.78-5.12-12.11Z"/>
    </g>
  </g>
</svg>
